<svg width="36" height="32" viewBox="0 0 36 32" xmlns="http://www.w3.org/2000/svg">
  <path d="M25.5694 0C22.4654 0 19.5563 1.48934 17.7144 3.91127C15.8678 1.48934 12.9587 0 9.85472 0C4.42163 0 0 4.42163 0 9.85472C0 12.4158 0.978976 14.8424 2.76526 16.6983L17.7144 32L32.6681 16.689C34.4451 14.8424 35.4287 12.4158 35.4287 9.85472C35.4287 4.42163 31.0071 0 25.574 0H25.5694ZM30.9978 15.0744L17.7097 28.678L4.42627 15.079C3.06684 13.6686 2.31521 11.8127 2.31521 9.85472C2.31521 5.69755 5.69755 2.31985 9.85008 2.31985C12.7453 2.31985 15.4177 4.0087 16.6612 6.62549L17.7097 8.82935L18.7583 6.62549C20.0017 4.0087 22.6742 2.31985 25.5694 2.31985C29.7265 2.31985 33.1042 5.70219 33.1042 9.85472C33.1042 11.8127 32.3526 13.6686 30.9978 15.0744Z" fill="currentColor"/>
</svg>
