<svg width="32" height="32" viewBox="0 0 32 32" xmlns="http://www.w3.org/2000/svg">
  <path d="M25.1925 9.90141H21.1455C20.9108 6.05165 19.5399 2.65728 17.507 1.02348C17.4695 0.985918 17.4272 0.948359 17.385 0.910801C16.493 0.197186 15.4977 -0.117368 14.5822 0.0375612L14.4789 0.0563405C14.3803 0.0751199 14.277 0.103289 14.1831 0.136153C14.1408 0.150237 14.0986 0.164322 14.0704 0.178406C13.9155 0.239439 13.7653 0.314556 13.6103 0.408453C13.554 0.441317 13.5023 0.478876 13.4413 0.521129C13.3803 0.568078 13.3192 0.619721 13.2629 0.671364C13.2019 0.727702 13.1361 0.788735 13.061 0.868547C13.0188 0.915495 12.9765 0.957749 12.939 1.00939C12.8451 1.12676 12.7559 1.24883 12.6761 1.38028C12.6526 1.41784 12.6291 1.4601 12.6009 1.51643C12.5446 1.61503 12.493 1.72301 12.4413 1.83568C12.4178 1.89202 12.3944 1.94836 12.3709 2C12.3239 2.12207 12.2817 2.25352 12.2394 2.39437C12.23 2.42723 12.216 2.46479 12.2066 2.50235C12.1596 2.67136 12.1221 2.85446 12.0892 3.04695L12.0657 3.20188C12.0423 3.34742 12.0282 3.50235 12.0094 3.67136L11.9953 3.84507C11.9812 4.05634 11.9718 4.2723 11.9718 4.50704C11.9718 7.15963 9.41784 9.43662 8.73239 10V9.93897H2.46948C1.10798 9.93897 0 11.047 0 12.4085V28.2113C0 29.5822 1.11268 30.6948 2.48357 30.6948H8.51643C8.98122 31.4085 9.78404 31.8779 10.6995 31.8779H21.0657C27.0939 31.8779 32 26.9718 32 20.9437V16.7089C32 12.9531 28.9484 9.90141 25.1925 9.90141ZM6.38967 28.3427H2.48357C2.40845 28.3427 2.34742 28.2817 2.34742 28.2066V12.4038C2.34742 12.338 2.40376 12.2817 2.46948 12.2817H6.38967V28.3427ZM29.6526 20.9437C29.6526 25.6761 25.8028 29.5305 21.0657 29.5305H10.6995C10.5587 29.5305 10.4413 29.4131 10.4413 29.2723V11.6338C11.5775 10.6573 14.3239 7.94366 14.3239 4.50704C14.3239 4.32864 14.3333 4.15963 14.3427 4L14.3521 3.86385C14.3615 3.75118 14.3756 3.64319 14.3897 3.53991L14.4038 3.43662C14.4225 3.31925 14.446 3.20658 14.4742 3.11268L14.493 3.04695C14.5117 2.97653 14.5352 2.9108 14.5587 2.84507L14.5869 2.77465C14.6056 2.7277 14.6291 2.68545 14.6479 2.64789L14.6761 2.59625C14.6995 2.55869 14.723 2.52582 14.7559 2.48827L14.8592 2.39437C14.8592 2.39437 14.8873 2.37559 14.9061 2.37089L14.9624 2.35212C15.1315 2.32395 15.4601 2.39906 15.8498 2.69014L15.9812 2.80751C17.3991 3.90611 18.831 6.88733 18.831 11.0704V12.2441H25.1878C27.6479 12.2441 29.6479 14.2441 29.6479 16.7042V20.939L29.6526 20.9437Z" fill="currentColor"/>
</svg>
